<svg id="visual" viewBox="0 0 960 540" width="960" height="540" xmlns="http://www.w3.org/2000/svg" xmlns:xlink="http://www.w3.org/1999/xlink" version="1.1"><path d="M0 93L87 55L175 33L262 77L349 50L436 77L524 87L611 60L698 87L785 33L873 55L960 44L960 0L873 0L785 0L698 0L611 0L524 0L436 0L349 0L262 0L175 0L87 0L0 0Z" fill="#20212a"></path><path d="M0 217L87 244L175 239L262 185L349 206L436 163L524 266L611 287L698 222L785 147L873 168L960 195L960 42L873 53L785 31L698 85L611 58L524 85L436 75L349 48L262 75L175 31L87 53L0 91Z" fill="#282c3a"></path><path d="M0 330L87 330L175 406L262 314L349 368L436 352L524 363L611 395L698 347L785 320L873 374L960 363L960 193L873 166L785 145L698 220L611 285L524 264L436 161L349 204L262 183L175 237L87 242L0 215Z" fill="#30374a"></path><path d="M0 411L87 433L175 482L262 417L349 411L436 417L524 444L611 498L698 401L785 390L873 433L960 449L960 361L873 372L785 318L698 345L611 393L524 361L436 350L349 366L262 312L175 404L87 328L0 328Z" fill="#37435b"></path><path d="M0 541L87 541L175 541L262 541L349 541L436 541L524 541L611 541L698 541L785 541L873 541L960 541L960 447L873 431L785 388L698 399L611 496L524 442L436 415L349 409L262 415L175 480L87 431L0 409Z" fill="#3d4f6c"></path></svg>